{
 "cells": [
  {
   "cell_type": "code",
   "execution_count": 1,
   "metadata": {},
   "outputs": [
    {
     "name": "stderr",
     "output_type": "stream",
     "text": [
      "ffmpeg version 7.0.2 Copyright (c) 2000-2024 the FFmpeg developers\n",
      "  built with Apple clang version 15.0.0 (clang-1500.3.9.4)\n",
      "  configuration: --prefix=/opt/homebrew/Cellar/ffmpeg/7.0.2 --enable-shared --enable-pthreads --enable-version3 --cc=clang --host-cflags= --host-ldflags='-Wl,-ld_classic' --enable-ffplay --enable-gnutls --enable-gpl --enable-libaom --enable-libaribb24 --enable-libbluray --enable-libdav1d --enable-libharfbuzz --enable-libjxl --enable-libmp3lame --enable-libopus --enable-librav1e --enable-librist --enable-librubberband --enable-libsnappy --enable-libsrt --enable-libssh --enable-libsvtav1 --enable-libtesseract --enable-libtheora --enable-libvidstab --enable-libvmaf --enable-libvorbis --enable-libvpx --enable-libwebp --enable-libx264 --enable-libx265 --enable-libxml2 --enable-libxvid --enable-lzma --enable-libfontconfig --enable-libfreetype --enable-frei0r --enable-libass --enable-libopencore-amrnb --enable-libopencore-amrwb --enable-libopenjpeg --enable-libspeex --enable-libsoxr --enable-libzmq --enable-libzimg --disable-libjack --disable-indev=jack --enable-videotoolbox --enable-audiotoolbox --enable-neon\n",
      "  libavutil      59.  8.100 / 59.  8.100\n",
      "  libavcodec     61.  3.100 / 61.  3.100\n",
      "  libavformat    61.  1.100 / 61.  1.100\n",
      "  libavdevice    61.  1.100 / 61.  1.100\n",
      "  libavfilter    10.  1.100 / 10.  1.100\n",
      "  libswscale      8.  1.100 /  8.  1.100\n",
      "  libswresample   5.  1.100 /  5.  1.100\n",
      "  libpostproc    58.  1.100 / 58.  1.100\n",
      "Input #0, mp3, from '../26강막대그래프(3)_만점왕수학4-1(2024).mp3':\n",
      "  Metadata:\n",
      "    encoder         : Lavf58.29.100\n",
      "  Duration: 00:29:27.42, start: 0.025057, bitrate: 128 kb/s\n",
      "  Stream #0:0: Audio: mp3 (mp3float), 44100 Hz, stereo, fltp, 128 kb/s\n",
      "      Metadata:\n",
      "        encoder         : Lavc58.54\n",
      "Stream mapping:\n",
      "  Stream #0:0 -> #0:0 (mp3 (mp3float) -> mp3 (libmp3lame))\n",
      "Press [q] to stop, [?] for help\n",
      "Output #0, mp3, to '../compressed_26강막대그래프(3)_만점왕수학4-1(2024).mp3':\n",
      "  Metadata:\n",
      "    TSSE            : Lavf61.1.100\n",
      "  Stream #0:0: Audio: mp3, 16000 Hz, stereo, fltp, 64 kb/s\n",
      "      Metadata:\n",
      "        encoder         : Lavc61.3.100 libmp3lame\n",
      "[out#0/mp3 @ 0x1576056a0] video:0KiB audio:13809KiB subtitle:0KiB other streams:0KiB global headers:0KiB muxing overhead: 0.002348%\n",
      "size=   13809KiB time=00:29:27.39 bitrate=  64.0kbits/s speed= 159x    \n",
      "ffmpeg version 7.0.2 Copyright (c) 2000-2024 the FFmpeg developers\n",
      "  built with Apple clang version 15.0.0 (clang-1500.3.9.4)\n",
      "  configuration: --prefix=/opt/homebrew/Cellar/ffmpeg/7.0.2 --enable-shared --enable-pthreads --enable-version3 --cc=clang --host-cflags= --host-ldflags='-Wl,-ld_classic' --enable-ffplay --enable-gnutls --enable-gpl --enable-libaom --enable-libaribb24 --enable-libbluray --enable-libdav1d --enable-libharfbuzz --enable-libjxl --enable-libmp3lame --enable-libopus --enable-librav1e --enable-librist --enable-librubberband --enable-libsnappy --enable-libsrt --enable-libssh --enable-libsvtav1 --enable-libtesseract --enable-libtheora --enable-libvidstab --enable-libvmaf --enable-libvorbis --enable-libvpx --enable-libwebp --enable-libx264 --enable-libx265 --enable-libxml2 --enable-libxvid --enable-lzma --enable-libfontconfig --enable-libfreetype --enable-frei0r --enable-libass --enable-libopencore-amrnb --enable-libopencore-amrwb --enable-libopenjpeg --enable-libspeex --enable-libsoxr --enable-libzmq --enable-libzimg --disable-libjack --disable-indev=jack --enable-videotoolbox --enable-audiotoolbox --enable-neon\n",
      "  libavutil      59.  8.100 / 59.  8.100\n",
      "  libavcodec     61.  3.100 / 61.  3.100\n",
      "  libavformat    61.  1.100 / 61.  1.100\n",
      "  libavdevice    61.  1.100 / 61.  1.100\n",
      "  libavfilter    10.  1.100 / 10.  1.100\n",
      "  libswscale      8.  1.100 /  8.  1.100\n",
      "  libswresample   5.  1.100 /  5.  1.100\n",
      "  libpostproc    58.  1.100 / 58.  1.100\n",
      "Input #0, mp3, from '../29강규칙찾기(2)_만점왕수학4-1(2024).mp3':\n",
      "  Metadata:\n",
      "    encoder         : Lavf58.29.100\n",
      "  Duration: 00:28:52.05, start: 0.025057, bitrate: 128 kb/s\n",
      "  Stream #0:0: Audio: mp3 (mp3float), 44100 Hz, stereo, fltp, 128 kb/s\n",
      "      Metadata:\n",
      "        encoder         : Lavc58.54\n",
      "Stream mapping:\n",
      "  Stream #0:0 -> #0:0 (mp3 (mp3float) -> mp3 (libmp3lame))\n",
      "Press [q] to stop, [?] for help\n",
      "Output #0, mp3, to '../compressed_29강규칙찾기(2)_만점왕수학4-1(2024).mp3':\n",
      "  Metadata:\n",
      "    TSSE            : Lavf61.1.100\n",
      "  Stream #0:0: Audio: mp3, 16000 Hz, stereo, fltp, 64 kb/s\n",
      "      Metadata:\n",
      "        encoder         : Lavc61.3.100 libmp3lame\n"
     ]
    },
    {
     "name": "stdout",
     "output_type": "stream",
     "text": [
      "Audio compressed successfully: ../compressed_26강막대그래프(3)_만점왕수학4-1(2024).mp3\n",
      "Compressed 26강막대그래프(3)_만점왕수학4-1(2024).mp3 and saved as ../compressed_26강막대그래프(3)_만점왕수학4-1(2024).mp3\n"
     ]
    },
    {
     "name": "stderr",
     "output_type": "stream",
     "text": [
      "[out#0/mp3 @ 0x15d0059a0] video:0KiB audio:13532KiB subtitle:0KiB other streams:0KiB global headers:0KiB muxing overhead: 0.002396%\n",
      "size=   13532KiB time=00:28:52.02 bitrate=  64.0kbits/s speed= 133x    \n",
      "ffmpeg version 7.0.2 Copyright (c) 2000-2024 the FFmpeg developers\n",
      "  built with Apple clang version 15.0.0 (clang-1500.3.9.4)\n",
      "  configuration: --prefix=/opt/homebrew/Cellar/ffmpeg/7.0.2 --enable-shared --enable-pthreads --enable-version3 --cc=clang --host-cflags= --host-ldflags='-Wl,-ld_classic' --enable-ffplay --enable-gnutls --enable-gpl --enable-libaom --enable-libaribb24 --enable-libbluray --enable-libdav1d --enable-libharfbuzz --enable-libjxl --enable-libmp3lame --enable-libopus --enable-librav1e --enable-librist --enable-librubberband --enable-libsnappy --enable-libsrt --enable-libssh --enable-libsvtav1 --enable-libtesseract --enable-libtheora --enable-libvidstab --enable-libvmaf --enable-libvorbis --enable-libvpx --enable-libwebp --enable-libx264 --enable-libx265 --enable-libxml2 --enable-libxvid --enable-lzma --enable-libfontconfig --enable-libfreetype --enable-frei0r --enable-libass --enable-libopencore-amrnb --enable-libopencore-amrwb --enable-libopenjpeg --enable-libspeex --enable-libsoxr --enable-libzmq --enable-libzimg --disable-libjack --disable-indev=jack --enable-videotoolbox --enable-audiotoolbox --enable-neon\n",
      "  libavutil      59.  8.100 / 59.  8.100\n",
      "  libavcodec     61.  3.100 / 61.  3.100\n",
      "  libavformat    61.  1.100 / 61.  1.100\n",
      "  libavdevice    61.  1.100 / 61.  1.100\n",
      "  libavfilter    10.  1.100 / 10.  1.100\n",
      "  libswscale      8.  1.100 /  8.  1.100\n",
      "  libswresample   5.  1.100 /  5.  1.100\n",
      "  libpostproc    58.  1.100 / 58.  1.100\n",
      "Input #0, mp3, from '../18강곱셈과나눗셈(7)_만점왕수학4-1(2024).mp3':\n",
      "  Metadata:\n",
      "    encoder         : Lavf58.29.100\n",
      "  Duration: 00:28:48.47, start: 0.025057, bitrate: 128 kb/s\n",
      "  Stream #0:0: Audio: mp3 (mp3float), 44100 Hz, stereo, fltp, 128 kb/s\n",
      "      Metadata:\n",
      "        encoder         : Lavc58.54\n",
      "Stream mapping:\n",
      "  Stream #0:0 -> #0:0 (mp3 (mp3float) -> mp3 (libmp3lame))\n",
      "Press [q] to stop, [?] for help\n",
      "Output #0, mp3, to '../compressed_18강곱셈과나눗셈(7)_만점왕수학4-1(2024).mp3':\n",
      "  Metadata:\n",
      "    TSSE            : Lavf61.1.100\n",
      "  Stream #0:0: Audio: mp3, 16000 Hz, stereo, fltp, 64 kb/s\n",
      "      Metadata:\n",
      "        encoder         : Lavc61.3.100 libmp3lame\n"
     ]
    },
    {
     "name": "stdout",
     "output_type": "stream",
     "text": [
      "Audio compressed successfully: ../compressed_29강규칙찾기(2)_만점왕수학4-1(2024).mp3\n",
      "Compressed 29강규칙찾기(2)_만점왕수학4-1(2024).mp3 and saved as ../compressed_29강규칙찾기(2)_만점왕수학4-1(2024).mp3\n"
     ]
    },
    {
     "name": "stderr",
     "output_type": "stream",
     "text": [
      "[out#0/mp3 @ 0x14c820970] video:0KiB audio:13504KiB subtitle:0KiB other streams:0KiB global headers:0KiB muxing overhead: 0.002401%\n",
      "size=   13504KiB time=00:28:48.42 bitrate=  64.0kbits/s speed= 133x    \n",
      "ffmpeg version 7.0.2 Copyright (c) 2000-2024 the FFmpeg developers\n",
      "  built with Apple clang version 15.0.0 (clang-1500.3.9.4)\n",
      "  configuration: --prefix=/opt/homebrew/Cellar/ffmpeg/7.0.2 --enable-shared --enable-pthreads --enable-version3 --cc=clang --host-cflags= --host-ldflags='-Wl,-ld_classic' --enable-ffplay --enable-gnutls --enable-gpl --enable-libaom --enable-libaribb24 --enable-libbluray --enable-libdav1d --enable-libharfbuzz --enable-libjxl --enable-libmp3lame --enable-libopus --enable-librav1e --enable-librist --enable-librubberband --enable-libsnappy --enable-libsrt --enable-libssh --enable-libsvtav1 --enable-libtesseract --enable-libtheora --enable-libvidstab --enable-libvmaf --enable-libvorbis --enable-libvpx --enable-libwebp --enable-libx264 --enable-libx265 --enable-libxml2 --enable-libxvid --enable-lzma --enable-libfontconfig --enable-libfreetype --enable-frei0r --enable-libass --enable-libopencore-amrnb --enable-libopencore-amrwb --enable-libopenjpeg --enable-libspeex --enable-libsoxr --enable-libzmq --enable-libzimg --disable-libjack --disable-indev=jack --enable-videotoolbox --enable-audiotoolbox --enable-neon\n",
      "  libavutil      59.  8.100 / 59.  8.100\n",
      "  libavcodec     61.  3.100 / 61.  3.100\n",
      "  libavformat    61.  1.100 / 61.  1.100\n",
      "  libavdevice    61.  1.100 / 61.  1.100\n",
      "  libavfilter    10.  1.100 / 10.  1.100\n",
      "  libswscale      8.  1.100 /  8.  1.100\n",
      "  libswresample   5.  1.100 /  5.  1.100\n",
      "  libpostproc    58.  1.100 / 58.  1.100\n",
      "Input #0, mp3, from '../31강규칙찾기(4)_만점왕수학4-1(2024).mp3':\n",
      "  Metadata:\n",
      "    encoder         : Lavf58.29.100\n",
      "  Duration: 00:29:25.43, start: 0.025057, bitrate: 128 kb/s\n",
      "  Stream #0:0: Audio: mp3 (mp3float), 44100 Hz, stereo, fltp, 128 kb/s\n",
      "      Metadata:\n",
      "        encoder         : Lavc58.54\n",
      "Stream mapping:\n",
      "  Stream #0:0 -> #0:0 (mp3 (mp3float) -> mp3 (libmp3lame))\n",
      "Press [q] to stop, [?] for help\n",
      "Output #0, mp3, to '../compressed_31강규칙찾기(4)_만점왕수학4-1(2024).mp3':\n",
      "  Metadata:\n",
      "    TSSE            : Lavf61.1.100\n",
      "  Stream #0:0: Audio: mp3, 16000 Hz, stereo, fltp, 64 kb/s\n",
      "      Metadata:\n",
      "        encoder         : Lavc61.3.100 libmp3lame\n"
     ]
    },
    {
     "name": "stdout",
     "output_type": "stream",
     "text": [
      "Audio compressed successfully: ../compressed_18강곱셈과나눗셈(7)_만점왕수학4-1(2024).mp3\n",
      "Compressed 18강곱셈과나눗셈(7)_만점왕수학4-1(2024).mp3 and saved as ../compressed_18강곱셈과나눗셈(7)_만점왕수학4-1(2024).mp3\n"
     ]
    },
    {
     "name": "stderr",
     "output_type": "stream",
     "text": [
      "[out#0/mp3 @ 0x14a904850] video:0KiB audio:13793KiB subtitle:0KiB other streams:0KiB global headers:0KiB muxing overhead: 0.002351%\n",
      "size=   13793KiB time=00:29:25.39 bitrate=  64.0kbits/s speed= 156x    \n",
      "ffmpeg version 7.0.2 Copyright (c) 2000-2024 the FFmpeg developers\n",
      "  built with Apple clang version 15.0.0 (clang-1500.3.9.4)\n",
      "  configuration: --prefix=/opt/homebrew/Cellar/ffmpeg/7.0.2 --enable-shared --enable-pthreads --enable-version3 --cc=clang --host-cflags= --host-ldflags='-Wl,-ld_classic' --enable-ffplay --enable-gnutls --enable-gpl --enable-libaom --enable-libaribb24 --enable-libbluray --enable-libdav1d --enable-libharfbuzz --enable-libjxl --enable-libmp3lame --enable-libopus --enable-librav1e --enable-librist --enable-librubberband --enable-libsnappy --enable-libsrt --enable-libssh --enable-libsvtav1 --enable-libtesseract --enable-libtheora --enable-libvidstab --enable-libvmaf --enable-libvorbis --enable-libvpx --enable-libwebp --enable-libx264 --enable-libx265 --enable-libxml2 --enable-libxvid --enable-lzma --enable-libfontconfig --enable-libfreetype --enable-frei0r --enable-libass --enable-libopencore-amrnb --enable-libopencore-amrwb --enable-libopenjpeg --enable-libspeex --enable-libsoxr --enable-libzmq --enable-libzimg --disable-libjack --disable-indev=jack --enable-videotoolbox --enable-audiotoolbox --enable-neon\n",
      "  libavutil      59.  8.100 / 59.  8.100\n",
      "  libavcodec     61.  3.100 / 61.  3.100\n",
      "  libavformat    61.  1.100 / 61.  1.100\n",
      "  libavdevice    61.  1.100 / 61.  1.100\n",
      "  libavfilter    10.  1.100 / 10.  1.100\n",
      "  libswscale      8.  1.100 /  8.  1.100\n",
      "  libswresample   5.  1.100 /  5.  1.100\n",
      "  libpostproc    58.  1.100 / 58.  1.100\n",
      "Input #0, mp3, from '../25강막대그래프(2)_만점왕수학4-1(2024).mp3':\n",
      "  Metadata:\n",
      "    encoder         : Lavf58.29.100\n",
      "  Duration: 00:29:24.96, start: 0.025057, bitrate: 128 kb/s\n",
      "  Stream #0:0: Audio: mp3 (mp3float), 44100 Hz, stereo, fltp, 128 kb/s\n",
      "      Metadata:\n",
      "        encoder         : Lavc58.54\n",
      "Stream mapping:\n",
      "  Stream #0:0 -> #0:0 (mp3 (mp3float) -> mp3 (libmp3lame))\n",
      "Press [q] to stop, [?] for help\n",
      "Output #0, mp3, to '../compressed_25강막대그래프(2)_만점왕수학4-1(2024).mp3':\n",
      "  Metadata:\n",
      "    TSSE            : Lavf61.1.100\n",
      "  Stream #0:0: Audio: mp3, 16000 Hz, stereo, fltp, 64 kb/s\n",
      "      Metadata:\n",
      "        encoder         : Lavc61.3.100 libmp3lame\n"
     ]
    },
    {
     "name": "stdout",
     "output_type": "stream",
     "text": [
      "Audio compressed successfully: ../compressed_31강규칙찾기(4)_만점왕수학4-1(2024).mp3\n",
      "Compressed 31강규칙찾기(4)_만점왕수학4-1(2024).mp3 and saved as ../compressed_31강규칙찾기(4)_만점왕수학4-1(2024).mp3\n"
     ]
    },
    {
     "name": "stderr",
     "output_type": "stream",
     "text": [
      "[out#0/mp3 @ 0x150e114c0] video:0KiB audio:13789KiB subtitle:0KiB other streams:0KiB global headers:0KiB muxing overhead: 0.002351%\n",
      "size=   13789KiB time=00:29:24.92 bitrate=  64.0kbits/s speed= 176x    \n",
      "ffmpeg version 7.0.2 Copyright (c) 2000-2024 the FFmpeg developers\n",
      "  built with Apple clang version 15.0.0 (clang-1500.3.9.4)\n",
      "  configuration: --prefix=/opt/homebrew/Cellar/ffmpeg/7.0.2 --enable-shared --enable-pthreads --enable-version3 --cc=clang --host-cflags= --host-ldflags='-Wl,-ld_classic' --enable-ffplay --enable-gnutls --enable-gpl --enable-libaom --enable-libaribb24 --enable-libbluray --enable-libdav1d --enable-libharfbuzz --enable-libjxl --enable-libmp3lame --enable-libopus --enable-librav1e --enable-librist --enable-librubberband --enable-libsnappy --enable-libsrt --enable-libssh --enable-libsvtav1 --enable-libtesseract --enable-libtheora --enable-libvidstab --enable-libvmaf --enable-libvorbis --enable-libvpx --enable-libwebp --enable-libx264 --enable-libx265 --enable-libxml2 --enable-libxvid --enable-lzma --enable-libfontconfig --enable-libfreetype --enable-frei0r --enable-libass --enable-libopencore-amrnb --enable-libopencore-amrwb --enable-libopenjpeg --enable-libspeex --enable-libsoxr --enable-libzmq --enable-libzimg --disable-libjack --disable-indev=jack --enable-videotoolbox --enable-audiotoolbox --enable-neon\n",
      "  libavutil      59.  8.100 / 59.  8.100\n",
      "  libavcodec     61.  3.100 / 61.  3.100\n",
      "  libavformat    61.  1.100 / 61.  1.100\n",
      "  libavdevice    61.  1.100 / 61.  1.100\n",
      "  libavfilter    10.  1.100 / 10.  1.100\n",
      "  libswscale      8.  1.100 /  8.  1.100\n",
      "  libswresample   5.  1.100 /  5.  1.100\n",
      "  libpostproc    58.  1.100 / 58.  1.100\n",
      "Input #0, mp3, from '../30강규칙찾기(3)_만점왕수학4-1(2024).mp3':\n",
      "  Metadata:\n",
      "    encoder         : Lavf58.29.100\n",
      "  Duration: 00:29:22.43, start: 0.025057, bitrate: 128 kb/s\n",
      "  Stream #0:0: Audio: mp3 (mp3float), 44100 Hz, stereo, fltp, 128 kb/s\n",
      "      Metadata:\n",
      "        encoder         : Lavc58.54\n",
      "Stream mapping:\n",
      "  Stream #0:0 -> #0:0 (mp3 (mp3float) -> mp3 (libmp3lame))\n",
      "Press [q] to stop, [?] for help\n",
      "Output #0, mp3, to '../compressed_30강규칙찾기(3)_만점왕수학4-1(2024).mp3':\n",
      "  Metadata:\n",
      "    TSSE            : Lavf61.1.100\n",
      "  Stream #0:0: Audio: mp3, 16000 Hz, stereo, fltp, 64 kb/s\n",
      "      Metadata:\n",
      "        encoder         : Lavc61.3.100 libmp3lame\n"
     ]
    },
    {
     "name": "stdout",
     "output_type": "stream",
     "text": [
      "Audio compressed successfully: ../compressed_25강막대그래프(2)_만점왕수학4-1(2024).mp3\n",
      "Compressed 25강막대그래프(2)_만점왕수학4-1(2024).mp3 and saved as ../compressed_25강막대그래프(2)_만점왕수학4-1(2024).mp3\n"
     ]
    },
    {
     "name": "stderr",
     "output_type": "stream",
     "text": [
      "[out#0/mp3 @ 0x151207530] video:0KiB audio:13769KiB subtitle:0KiB other streams:0KiB global headers:0KiB muxing overhead: 0.002355%\n",
      "size=   13769KiB time=00:29:22.38 bitrate=  64.0kbits/s speed= 175x    \n",
      "ffmpeg version 7.0.2 Copyright (c) 2000-2024 the FFmpeg developers\n",
      "  built with Apple clang version 15.0.0 (clang-1500.3.9.4)\n",
      "  configuration: --prefix=/opt/homebrew/Cellar/ffmpeg/7.0.2 --enable-shared --enable-pthreads --enable-version3 --cc=clang --host-cflags= --host-ldflags='-Wl,-ld_classic' --enable-ffplay --enable-gnutls --enable-gpl --enable-libaom --enable-libaribb24 --enable-libbluray --enable-libdav1d --enable-libharfbuzz --enable-libjxl --enable-libmp3lame --enable-libopus --enable-librav1e --enable-librist --enable-librubberband --enable-libsnappy --enable-libsrt --enable-libssh --enable-libsvtav1 --enable-libtesseract --enable-libtheora --enable-libvidstab --enable-libvmaf --enable-libvorbis --enable-libvpx --enable-libwebp --enable-libx264 --enable-libx265 --enable-libxml2 --enable-libxvid --enable-lzma --enable-libfontconfig --enable-libfreetype --enable-frei0r --enable-libass --enable-libopencore-amrnb --enable-libopencore-amrwb --enable-libopenjpeg --enable-libspeex --enable-libsoxr --enable-libzmq --enable-libzimg --disable-libjack --disable-indev=jack --enable-videotoolbox --enable-audiotoolbox --enable-neon\n",
      "  libavutil      59.  8.100 / 59.  8.100\n",
      "  libavcodec     61.  3.100 / 61.  3.100\n",
      "  libavformat    61.  1.100 / 61.  1.100\n",
      "  libavdevice    61.  1.100 / 61.  1.100\n",
      "  libavfilter    10.  1.100 / 10.  1.100\n",
      "  libswscale      8.  1.100 /  8.  1.100\n",
      "  libswresample   5.  1.100 /  5.  1.100\n",
      "  libpostproc    58.  1.100 / 58.  1.100\n",
      "Input #0, mp3, from '../17강곱셈과나눗셈(6)_만점왕수학4-1(2024).mp3':\n",
      "  Metadata:\n",
      "    encoder         : Lavf58.29.100\n",
      "  Duration: 00:28:54.50, start: 0.025057, bitrate: 128 kb/s\n",
      "  Stream #0:0: Audio: mp3 (mp3float), 44100 Hz, stereo, fltp, 128 kb/s\n",
      "      Metadata:\n",
      "        encoder         : Lavc58.54\n",
      "Stream mapping:\n",
      "  Stream #0:0 -> #0:0 (mp3 (mp3float) -> mp3 (libmp3lame))\n",
      "Press [q] to stop, [?] for help\n",
      "Output #0, mp3, to '../compressed_17강곱셈과나눗셈(6)_만점왕수학4-1(2024).mp3':\n",
      "  Metadata:\n",
      "    TSSE            : Lavf61.1.100\n",
      "  Stream #0:0: Audio: mp3, 16000 Hz, stereo, fltp, 64 kb/s\n",
      "      Metadata:\n",
      "        encoder         : Lavc61.3.100 libmp3lame\n"
     ]
    },
    {
     "name": "stdout",
     "output_type": "stream",
     "text": [
      "Audio compressed successfully: ../compressed_30강규칙찾기(3)_만점왕수학4-1(2024).mp3\n",
      "Compressed 30강규칙찾기(3)_만점왕수학4-1(2024).mp3 and saved as ../compressed_30강규칙찾기(3)_만점왕수학4-1(2024).mp3\n"
     ]
    },
    {
     "name": "stderr",
     "output_type": "stream",
     "text": [
      "[out#0/mp3 @ 0x129f2d5e0] video:0KiB audio:13551KiB subtitle:0KiB other streams:0KiB global headers:0KiB muxing overhead: 0.002393%\n",
      "size=   13552KiB time=00:28:54.46 bitrate=  64.0kbits/s speed= 164x    \n",
      "ffmpeg version 7.0.2 Copyright (c) 2000-2024 the FFmpeg developers\n",
      "  built with Apple clang version 15.0.0 (clang-1500.3.9.4)\n",
      "  configuration: --prefix=/opt/homebrew/Cellar/ffmpeg/7.0.2 --enable-shared --enable-pthreads --enable-version3 --cc=clang --host-cflags= --host-ldflags='-Wl,-ld_classic' --enable-ffplay --enable-gnutls --enable-gpl --enable-libaom --enable-libaribb24 --enable-libbluray --enable-libdav1d --enable-libharfbuzz --enable-libjxl --enable-libmp3lame --enable-libopus --enable-librav1e --enable-librist --enable-librubberband --enable-libsnappy --enable-libsrt --enable-libssh --enable-libsvtav1 --enable-libtesseract --enable-libtheora --enable-libvidstab --enable-libvmaf --enable-libvorbis --enable-libvpx --enable-libwebp --enable-libx264 --enable-libx265 --enable-libxml2 --enable-libxvid --enable-lzma --enable-libfontconfig --enable-libfreetype --enable-frei0r --enable-libass --enable-libopencore-amrnb --enable-libopencore-amrwb --enable-libopenjpeg --enable-libspeex --enable-libsoxr --enable-libzmq --enable-libzimg --disable-libjack --disable-indev=jack --enable-videotoolbox --enable-audiotoolbox --enable-neon\n",
      "  libavutil      59.  8.100 / 59.  8.100\n",
      "  libavcodec     61.  3.100 / 61.  3.100\n",
      "  libavformat    61.  1.100 / 61.  1.100\n",
      "  libavdevice    61.  1.100 / 61.  1.100\n",
      "  libavfilter    10.  1.100 / 10.  1.100\n",
      "  libswscale      8.  1.100 /  8.  1.100\n",
      "  libswresample   5.  1.100 /  5.  1.100\n",
      "  libpostproc    58.  1.100 / 58.  1.100\n",
      "Input #0, mp3, from '../22강평면도형의이동(3)_만점왕수학4-1(2024).mp3':\n",
      "  Metadata:\n",
      "    encoder         : Lavf58.29.100\n",
      "  Duration: 00:29:18.41, start: 0.025057, bitrate: 128 kb/s\n",
      "  Stream #0:0: Audio: mp3 (mp3float), 44100 Hz, stereo, fltp, 128 kb/s\n",
      "      Metadata:\n",
      "        encoder         : Lavc58.54\n",
      "Stream mapping:\n",
      "  Stream #0:0 -> #0:0 (mp3 (mp3float) -> mp3 (libmp3lame))\n",
      "Press [q] to stop, [?] for help\n",
      "Output #0, mp3, to '../compressed_22강평면도형의이동(3)_만점왕수학4-1(2024).mp3':\n",
      "  Metadata:\n",
      "    TSSE            : Lavf61.1.100\n",
      "  Stream #0:0: Audio: mp3, 16000 Hz, stereo, fltp, 64 kb/s\n",
      "      Metadata:\n",
      "        encoder         : Lavc61.3.100 libmp3lame\n"
     ]
    },
    {
     "name": "stdout",
     "output_type": "stream",
     "text": [
      "Audio compressed successfully: ../compressed_17강곱셈과나눗셈(6)_만점왕수학4-1(2024).mp3\n",
      "Compressed 17강곱셈과나눗셈(6)_만점왕수학4-1(2024).mp3 and saved as ../compressed_17강곱셈과나눗셈(6)_만점왕수학4-1(2024).mp3\n"
     ]
    },
    {
     "name": "stderr",
     "output_type": "stream",
     "text": [
      "[out#0/mp3 @ 0x13f72c230] video:0KiB audio:13738KiB subtitle:0KiB other streams:0KiB global headers:0KiB muxing overhead: 0.002360%\n",
      "size=   13738KiB time=00:29:18.38 bitrate=  64.0kbits/s speed= 167x    \n",
      "ffmpeg version 7.0.2 Copyright (c) 2000-2024 the FFmpeg developers\n",
      "  built with Apple clang version 15.0.0 (clang-1500.3.9.4)\n",
      "  configuration: --prefix=/opt/homebrew/Cellar/ffmpeg/7.0.2 --enable-shared --enable-pthreads --enable-version3 --cc=clang --host-cflags= --host-ldflags='-Wl,-ld_classic' --enable-ffplay --enable-gnutls --enable-gpl --enable-libaom --enable-libaribb24 --enable-libbluray --enable-libdav1d --enable-libharfbuzz --enable-libjxl --enable-libmp3lame --enable-libopus --enable-librav1e --enable-librist --enable-librubberband --enable-libsnappy --enable-libsrt --enable-libssh --enable-libsvtav1 --enable-libtesseract --enable-libtheora --enable-libvidstab --enable-libvmaf --enable-libvorbis --enable-libvpx --enable-libwebp --enable-libx264 --enable-libx265 --enable-libxml2 --enable-libxvid --enable-lzma --enable-libfontconfig --enable-libfreetype --enable-frei0r --enable-libass --enable-libopencore-amrnb --enable-libopencore-amrwb --enable-libopenjpeg --enable-libspeex --enable-libsoxr --enable-libzmq --enable-libzimg --disable-libjack --disable-indev=jack --enable-videotoolbox --enable-audiotoolbox --enable-neon\n",
      "  libavutil      59.  8.100 / 59.  8.100\n",
      "  libavcodec     61.  3.100 / 61.  3.100\n",
      "  libavformat    61.  1.100 / 61.  1.100\n",
      "  libavdevice    61.  1.100 / 61.  1.100\n",
      "  libavfilter    10.  1.100 / 10.  1.100\n",
      "  libswscale      8.  1.100 /  8.  1.100\n",
      "  libswresample   5.  1.100 /  5.  1.100\n",
      "  libpostproc    58.  1.100 / 58.  1.100\n",
      "Input #0, mp3, from '../28강규칙찾기(1)_만점왕수학4-1(2024).mp3':\n",
      "  Metadata:\n",
      "    encoder         : Lavf58.29.100\n",
      "  Duration: 00:29:16.42, start: 0.025057, bitrate: 128 kb/s\n",
      "  Stream #0:0: Audio: mp3 (mp3float), 44100 Hz, stereo, fltp, 128 kb/s\n",
      "      Metadata:\n",
      "        encoder         : Lavc58.54\n",
      "Stream mapping:\n",
      "  Stream #0:0 -> #0:0 (mp3 (mp3float) -> mp3 (libmp3lame))\n",
      "Press [q] to stop, [?] for help\n",
      "Output #0, mp3, to '../compressed_28강규칙찾기(1)_만점왕수학4-1(2024).mp3':\n",
      "  Metadata:\n",
      "    TSSE            : Lavf61.1.100\n",
      "  Stream #0:0: Audio: mp3, 16000 Hz, stereo, fltp, 64 kb/s\n",
      "      Metadata:\n",
      "        encoder         : Lavc61.3.100 libmp3lame\n"
     ]
    },
    {
     "name": "stdout",
     "output_type": "stream",
     "text": [
      "Audio compressed successfully: ../compressed_22강평면도형의이동(3)_만점왕수학4-1(2024).mp3\n",
      "Compressed 22강평면도형의이동(3)_만점왕수학4-1(2024).mp3 and saved as ../compressed_22강평면도형의이동(3)_만점왕수학4-1(2024).mp3\n"
     ]
    },
    {
     "name": "stderr",
     "output_type": "stream",
     "text": [
      "[out#0/mp3 @ 0x14f81fdf0] video:0KiB audio:13722KiB subtitle:0KiB other streams:0KiB global headers:0KiB muxing overhead: 0.002363%\n",
      "size=   13723KiB time=00:29:16.38 bitrate=  64.0kbits/s speed= 174x    \n",
      "ffmpeg version 7.0.2 Copyright (c) 2000-2024 the FFmpeg developers\n",
      "  built with Apple clang version 15.0.0 (clang-1500.3.9.4)\n",
      "  configuration: --prefix=/opt/homebrew/Cellar/ffmpeg/7.0.2 --enable-shared --enable-pthreads --enable-version3 --cc=clang --host-cflags= --host-ldflags='-Wl,-ld_classic' --enable-ffplay --enable-gnutls --enable-gpl --enable-libaom --enable-libaribb24 --enable-libbluray --enable-libdav1d --enable-libharfbuzz --enable-libjxl --enable-libmp3lame --enable-libopus --enable-librav1e --enable-librist --enable-librubberband --enable-libsnappy --enable-libsrt --enable-libssh --enable-libsvtav1 --enable-libtesseract --enable-libtheora --enable-libvidstab --enable-libvmaf --enable-libvorbis --enable-libvpx --enable-libwebp --enable-libx264 --enable-libx265 --enable-libxml2 --enable-libxvid --enable-lzma --enable-libfontconfig --enable-libfreetype --enable-frei0r --enable-libass --enable-libopencore-amrnb --enable-libopencore-amrwb --enable-libopenjpeg --enable-libspeex --enable-libsoxr --enable-libzmq --enable-libzimg --disable-libjack --disable-indev=jack --enable-videotoolbox --enable-audiotoolbox --enable-neon\n",
      "  libavutil      59.  8.100 / 59.  8.100\n",
      "  libavcodec     61.  3.100 / 61.  3.100\n",
      "  libavformat    61.  1.100 / 61.  1.100\n",
      "  libavdevice    61.  1.100 / 61.  1.100\n",
      "  libavfilter    10.  1.100 / 10.  1.100\n",
      "  libswscale      8.  1.100 /  8.  1.100\n",
      "  libswresample   5.  1.100 /  5.  1.100\n",
      "  libpostproc    58.  1.100 / 58.  1.100\n",
      "Input #0, mp3, from '../24강막대그래프(1)_만점왕수학4-1(2024).mp3':\n",
      "  Metadata:\n",
      "    encoder         : Lavf58.29.100\n",
      "  Duration: 00:29:04.98, start: 0.025057, bitrate: 128 kb/s\n",
      "  Stream #0:0: Audio: mp3 (mp3float), 44100 Hz, stereo, fltp, 128 kb/s\n",
      "      Metadata:\n",
      "        encoder         : Lavc58.54\n",
      "Stream mapping:\n",
      "  Stream #0:0 -> #0:0 (mp3 (mp3float) -> mp3 (libmp3lame))\n",
      "Press [q] to stop, [?] for help\n",
      "Output #0, mp3, to '../compressed_24강막대그래프(1)_만점왕수학4-1(2024).mp3':\n",
      "  Metadata:\n",
      "    TSSE            : Lavf61.1.100\n",
      "  Stream #0:0: Audio: mp3, 16000 Hz, stereo, fltp, 64 kb/s\n",
      "      Metadata:\n",
      "        encoder         : Lavc61.3.100 libmp3lame\n"
     ]
    },
    {
     "name": "stdout",
     "output_type": "stream",
     "text": [
      "Audio compressed successfully: ../compressed_28강규칙찾기(1)_만점왕수학4-1(2024).mp3\n",
      "Compressed 28강규칙찾기(1)_만점왕수학4-1(2024).mp3 and saved as ../compressed_28강규칙찾기(1)_만점왕수학4-1(2024).mp3\n"
     ]
    },
    {
     "name": "stderr",
     "output_type": "stream",
     "text": [
      "[out#0/mp3 @ 0x13ef12d10] video:0KiB audio:13633KiB subtitle:0KiB other streams:0KiB global headers:0KiB muxing overhead: 0.002378%\n",
      "size=   13633KiB time=00:29:04.93 bitrate=  64.0kbits/s speed= 166x    \n",
      "ffmpeg version 7.0.2 Copyright (c) 2000-2024 the FFmpeg developers\n",
      "  built with Apple clang version 15.0.0 (clang-1500.3.9.4)\n",
      "  configuration: --prefix=/opt/homebrew/Cellar/ffmpeg/7.0.2 --enable-shared --enable-pthreads --enable-version3 --cc=clang --host-cflags= --host-ldflags='-Wl,-ld_classic' --enable-ffplay --enable-gnutls --enable-gpl --enable-libaom --enable-libaribb24 --enable-libbluray --enable-libdav1d --enable-libharfbuzz --enable-libjxl --enable-libmp3lame --enable-libopus --enable-librav1e --enable-librist --enable-librubberband --enable-libsnappy --enable-libsrt --enable-libssh --enable-libsvtav1 --enable-libtesseract --enable-libtheora --enable-libvidstab --enable-libvmaf --enable-libvorbis --enable-libvpx --enable-libwebp --enable-libx264 --enable-libx265 --enable-libxml2 --enable-libxvid --enable-lzma --enable-libfontconfig --enable-libfreetype --enable-frei0r --enable-libass --enable-libopencore-amrnb --enable-libopencore-amrwb --enable-libopenjpeg --enable-libspeex --enable-libsoxr --enable-libzmq --enable-libzimg --disable-libjack --disable-indev=jack --enable-videotoolbox --enable-audiotoolbox --enable-neon\n",
      "  libavutil      59.  8.100 / 59.  8.100\n",
      "  libavcodec     61.  3.100 / 61.  3.100\n",
      "  libavformat    61.  1.100 / 61.  1.100\n",
      "  libavdevice    61.  1.100 / 61.  1.100\n",
      "  libavfilter    10.  1.100 / 10.  1.100\n",
      "  libswscale      8.  1.100 /  8.  1.100\n",
      "  libswresample   5.  1.100 /  5.  1.100\n",
      "  libpostproc    58.  1.100 / 58.  1.100\n",
      "Input #0, mp3, from '../16강곱셈과나눗셈(5)_만점왕수학4-1(2024).mp3':\n",
      "  Metadata:\n",
      "    encoder         : Lavf58.29.100\n",
      "  Duration: 00:29:04.40, start: 0.025057, bitrate: 128 kb/s\n",
      "  Stream #0:0: Audio: mp3 (mp3float), 44100 Hz, stereo, fltp, 128 kb/s\n",
      "      Metadata:\n",
      "        encoder         : Lavc58.54\n",
      "Stream mapping:\n",
      "  Stream #0:0 -> #0:0 (mp3 (mp3float) -> mp3 (libmp3lame))\n",
      "Press [q] to stop, [?] for help\n",
      "Output #0, mp3, to '../compressed_16강곱셈과나눗셈(5)_만점왕수학4-1(2024).mp3':\n",
      "  Metadata:\n",
      "    TSSE            : Lavf61.1.100\n",
      "  Stream #0:0: Audio: mp3, 16000 Hz, stereo, fltp, 64 kb/s\n",
      "      Metadata:\n",
      "        encoder         : Lavc61.3.100 libmp3lame\n"
     ]
    },
    {
     "name": "stdout",
     "output_type": "stream",
     "text": [
      "Audio compressed successfully: ../compressed_24강막대그래프(1)_만점왕수학4-1(2024).mp3\n",
      "Compressed 24강막대그래프(1)_만점왕수학4-1(2024).mp3 and saved as ../compressed_24강막대그래프(1)_만점왕수학4-1(2024).mp3\n"
     ]
    },
    {
     "name": "stderr",
     "output_type": "stream",
     "text": [
      "[out#0/mp3 @ 0x12a00f170] video:0KiB audio:13629KiB subtitle:0KiB other streams:0KiB global headers:0KiB muxing overhead: 0.002379%\n",
      "size=   13629KiB time=00:29:04.36 bitrate=  64.0kbits/s speed= 171x    \n",
      "ffmpeg version 7.0.2 Copyright (c) 2000-2024 the FFmpeg developers\n",
      "  built with Apple clang version 15.0.0 (clang-1500.3.9.4)\n",
      "  configuration: --prefix=/opt/homebrew/Cellar/ffmpeg/7.0.2 --enable-shared --enable-pthreads --enable-version3 --cc=clang --host-cflags= --host-ldflags='-Wl,-ld_classic' --enable-ffplay --enable-gnutls --enable-gpl --enable-libaom --enable-libaribb24 --enable-libbluray --enable-libdav1d --enable-libharfbuzz --enable-libjxl --enable-libmp3lame --enable-libopus --enable-librav1e --enable-librist --enable-librubberband --enable-libsnappy --enable-libsrt --enable-libssh --enable-libsvtav1 --enable-libtesseract --enable-libtheora --enable-libvidstab --enable-libvmaf --enable-libvorbis --enable-libvpx --enable-libwebp --enable-libx264 --enable-libx265 --enable-libxml2 --enable-libxvid --enable-lzma --enable-libfontconfig --enable-libfreetype --enable-frei0r --enable-libass --enable-libopencore-amrnb --enable-libopencore-amrwb --enable-libopenjpeg --enable-libspeex --enable-libsoxr --enable-libzmq --enable-libzimg --disable-libjack --disable-indev=jack --enable-videotoolbox --enable-audiotoolbox --enable-neon\n",
      "  libavutil      59.  8.100 / 59.  8.100\n",
      "  libavcodec     61.  3.100 / 61.  3.100\n",
      "  libavformat    61.  1.100 / 61.  1.100\n",
      "  libavdevice    61.  1.100 / 61.  1.100\n",
      "  libavfilter    10.  1.100 / 10.  1.100\n",
      "  libswscale      8.  1.100 /  8.  1.100\n",
      "  libswresample   5.  1.100 /  5.  1.100\n",
      "  libpostproc    58.  1.100 / 58.  1.100\n",
      "Input #0, mp3, from '../20강평면도형의이동(1)_만점왕수학4-1(2024).mp3':\n",
      "  Metadata:\n",
      "    encoder         : Lavf58.29.100\n",
      "  Duration: 00:28:55.39, start: 0.025057, bitrate: 128 kb/s\n",
      "  Stream #0:0: Audio: mp3 (mp3float), 44100 Hz, stereo, fltp, 128 kb/s\n",
      "      Metadata:\n",
      "        encoder         : Lavc58.54\n",
      "Stream mapping:\n",
      "  Stream #0:0 -> #0:0 (mp3 (mp3float) -> mp3 (libmp3lame))\n",
      "Press [q] to stop, [?] for help\n",
      "Output #0, mp3, to '../compressed_20강평면도형의이동(1)_만점왕수학4-1(2024).mp3':\n",
      "  Metadata:\n",
      "    TSSE            : Lavf61.1.100\n",
      "  Stream #0:0: Audio: mp3, 16000 Hz, stereo, fltp, 64 kb/s\n",
      "      Metadata:\n",
      "        encoder         : Lavc61.3.100 libmp3lame\n"
     ]
    },
    {
     "name": "stdout",
     "output_type": "stream",
     "text": [
      "Audio compressed successfully: ../compressed_16강곱셈과나눗셈(5)_만점왕수학4-1(2024).mp3\n",
      "Compressed 16강곱셈과나눗셈(5)_만점왕수학4-1(2024).mp3 and saved as ../compressed_16강곱셈과나눗셈(5)_만점왕수학4-1(2024).mp3\n"
     ]
    },
    {
     "name": "stderr",
     "output_type": "stream",
     "text": [
      "[out#0/mp3 @ 0x142105f40] video:0KiB audio:13558KiB subtitle:0KiB other streams:0KiB global headers:0KiB muxing overhead: 0.002391%\n",
      "size=   13559KiB time=00:28:55.36 bitrate=  64.0kbits/s speed= 173x    \n",
      "ffmpeg version 7.0.2 Copyright (c) 2000-2024 the FFmpeg developers\n",
      "  built with Apple clang version 15.0.0 (clang-1500.3.9.4)\n",
      "  configuration: --prefix=/opt/homebrew/Cellar/ffmpeg/7.0.2 --enable-shared --enable-pthreads --enable-version3 --cc=clang --host-cflags= --host-ldflags='-Wl,-ld_classic' --enable-ffplay --enable-gnutls --enable-gpl --enable-libaom --enable-libaribb24 --enable-libbluray --enable-libdav1d --enable-libharfbuzz --enable-libjxl --enable-libmp3lame --enable-libopus --enable-librav1e --enable-librist --enable-librubberband --enable-libsnappy --enable-libsrt --enable-libssh --enable-libsvtav1 --enable-libtesseract --enable-libtheora --enable-libvidstab --enable-libvmaf --enable-libvorbis --enable-libvpx --enable-libwebp --enable-libx264 --enable-libx265 --enable-libxml2 --enable-libxvid --enable-lzma --enable-libfontconfig --enable-libfreetype --enable-frei0r --enable-libass --enable-libopencore-amrnb --enable-libopencore-amrwb --enable-libopenjpeg --enable-libspeex --enable-libsoxr --enable-libzmq --enable-libzimg --disable-libjack --disable-indev=jack --enable-videotoolbox --enable-audiotoolbox --enable-neon\n",
      "  libavutil      59.  8.100 / 59.  8.100\n",
      "  libavcodec     61.  3.100 / 61.  3.100\n",
      "  libavformat    61.  1.100 / 61.  1.100\n",
      "  libavdevice    61.  1.100 / 61.  1.100\n",
      "  libavfilter    10.  1.100 / 10.  1.100\n",
      "  libswscale      8.  1.100 /  8.  1.100\n",
      "  libswresample   5.  1.100 /  5.  1.100\n",
      "  libpostproc    58.  1.100 / 58.  1.100\n",
      "Input #0, mp3, from '../21강평면도형의이동(2)_만점왕수학4-1(2024).mp3':\n",
      "  Metadata:\n",
      "    encoder         : Lavf58.29.100\n",
      "  Duration: 00:28:57.51, start: 0.025057, bitrate: 128 kb/s\n",
      "  Stream #0:0: Audio: mp3 (mp3float), 44100 Hz, stereo, fltp, 128 kb/s\n",
      "      Metadata:\n",
      "        encoder         : Lavc58.54\n",
      "Stream mapping:\n",
      "  Stream #0:0 -> #0:0 (mp3 (mp3float) -> mp3 (libmp3lame))\n",
      "Press [q] to stop, [?] for help\n",
      "Output #0, mp3, to '../compressed_21강평면도형의이동(2)_만점왕수학4-1(2024).mp3':\n",
      "  Metadata:\n",
      "    TSSE            : Lavf61.1.100\n",
      "  Stream #0:0: Audio: mp3, 16000 Hz, stereo, fltp, 64 kb/s\n",
      "      Metadata:\n",
      "        encoder         : Lavc61.3.100 libmp3lame\n"
     ]
    },
    {
     "name": "stdout",
     "output_type": "stream",
     "text": [
      "Audio compressed successfully: ../compressed_20강평면도형의이동(1)_만점왕수학4-1(2024).mp3\n",
      "Compressed 20강평면도형의이동(1)_만점왕수학4-1(2024).mp3 and saved as ../compressed_20강평면도형의이동(1)_만점왕수학4-1(2024).mp3\n"
     ]
    },
    {
     "name": "stderr",
     "output_type": "stream",
     "text": [
      "size=   13056KiB time=00:28:08.79 bitrate=  63.3kbits/s speed=96.1x    \r"
     ]
    },
    {
     "name": "stdout",
     "output_type": "stream",
     "text": [
      "Audio compressed successfully: ../compressed_21강평면도형의이동(2)_만점왕수학4-1(2024).mp3\n",
      "Compressed 21강평면도형의이동(2)_만점왕수학4-1(2024).mp3 and saved as ../compressed_21강평면도형의이동(2)_만점왕수학4-1(2024).mp3\n"
     ]
    },
    {
     "name": "stderr",
     "output_type": "stream",
     "text": [
      "[out#0/mp3 @ 0x11d62c2a0] video:0KiB audio:13575KiB subtitle:0KiB other streams:0KiB global headers:0KiB muxing overhead: 0.002388%\n",
      "size=   13575KiB time=00:28:57.46 bitrate=  64.0kbits/s speed=97.3x    \n"
     ]
    }
   ],
   "source": [
    "import os\n",
    "import ffmpeg\n",
    "\n",
    "# 오디오 파일 압축 함수\n",
    "def compress_audio(input_audio_path, output_audio_path, bitrate=\"64k\", sample_rate=16000):\n",
    "    \"\"\"\n",
    "    주어진 오디오 파일을 지정된 비트레이트와 샘플링 속도로 압축하여 출력 파일로 저장합니다.\n",
    "    \n",
    "    :param input_audio_path: 원본 오디오 파일 경로\n",
    "    :param output_audio_path: 압축된 오디오 파일 경로\n",
    "    :param bitrate: 압축할 비트레이트 (기본값: 64kbps)\n",
    "    :param sample_rate: 샘플링 속도 (기본값: 16000 Hz)\n",
    "    \"\"\"\n",
    "    try:\n",
    "        ffmpeg.input(input_audio_path).output(output_audio_path, ar=sample_rate, ab=bitrate).run()\n",
    "        print(f\"Audio compressed successfully: {output_audio_path}\")\n",
    "    except Exception as e:\n",
    "        print(f\"Error during compression: {e}\")\n",
    "\n",
    "# 폴더 내 모든 mp3 파일을 압축하는 함수\n",
    "def compress_all_audio_in_folder(folder_path, bitrate=\"64k\", sample_rate=16000):\n",
    "    \"\"\"\n",
    "    지정된 폴더 내 모든 .mp3 파일을 압축하여 저장합니다.\n",
    "    \n",
    "    :param folder_path: .mp3 파일이 있는 폴더 경로\n",
    "    :param bitrate: 압축할 비트레이트 (기본값: 64kbps)\n",
    "    :param sample_rate: 샘플링 속도 (기본값: 16000 Hz)\n",
    "    \"\"\"\n",
    "    for filename in os.listdir(folder_path):\n",
    "        if filename.endswith(\".mp3\"):\n",
    "            input_audio_path = os.path.join(folder_path, filename)\n",
    "            output_audio_path = os.path.join(folder_path, f\"compressed_{filename}\")\n",
    "            \n",
    "            # 오디오 압축 실행\n",
    "            compress_audio(input_audio_path, output_audio_path, bitrate, sample_rate)\n",
    "            print(f\"Compressed {filename} and saved as {output_audio_path}\")\n",
    "\n",
    "# 예시 사용\n",
    "folder_path = \"../\"  # 여기에 mp3 파일들이 저장된 폴더 경로를 입력하세요\n",
    "compress_all_audio_in_folder(folder_path)\n"
   ]
  }
 ],
 "metadata": {
  "kernelspec": {
   "display_name": "django",
   "language": "python",
   "name": "python3"
  },
  "language_info": {
   "codemirror_mode": {
    "name": "ipython",
    "version": 3
   },
   "file_extension": ".py",
   "mimetype": "text/x-python",
   "name": "python",
   "nbconvert_exporter": "python",
   "pygments_lexer": "ipython3",
   "version": "3.9.19"
  }
 },
 "nbformat": 4,
 "nbformat_minor": 2
}
